<?xml version="1.0" standalone="no"?>
<!DOCTYPE svg PUBLIC "-//W3C//DTD SVG 20010904//EN"
 "http://www.w3.org/TR/2001/REC-SVG-20010904/DTD/svg10.dtd">
<svg version="1.0" xmlns="http://www.w3.org/2000/svg"
 width="284.000000pt" height="284.000000pt" viewBox="0 0 284.000000 284.000000"
 preserveAspectRatio="xMidYMid meet">
<metadata>
Created by potrace 1.11, written by Peter Selinger 2001-2013
</metadata>
<g transform="translate(0.000000,284.000000) scale(0.100000,-0.100000)"
fill="#000000" stroke="none">
<path d="M535 1984 c-27 -47 -50 -93 -51 -102 0 -9 -8 -31 -17 -49 -21 -39
-21 -47 -2 -39 12 4 13 2 6 -13 -6 -10 -24 -55 -40 -101 -53 -144 -91 -194
-155 -203 -17 -2 -36 -14 -45 -27 -15 -22 -15 -23 14 -17 17 3 43 9 59 13 l29
7 -21 -31 c-25 -34 -27 -48 -9 -55 9 -3 8 -12 -5 -37 -12 -21 -16 -43 -12 -68
4 -25 0 -43 -10 -57 -15 -20 -15 -20 -16 4 0 49 -11 12 -20 -72 -16 -137 11
-208 85 -223 43 -8 77 22 117 104 32 65 33 69 33 202 0 132 -2 144 -40 233 -6
15 0 17 62 17 47 0 75 5 89 15 17 14 13 15 -56 14 -98 -2 -100 -1 -100 14 0
26 71 160 169 316 61 98 98 167 94 177 -4 12 -93 65 -105 64 -2 -1 -25 -39
-53 -86z m-5 -117 c0 -2 -10 -12 -21 -23 -22 -19 -22 -19 -10 4 10 18 31 31
31 19z m-60 -194 c0 -23 -80 -167 -88 -159 -5 6 77 176 85 176 2 0 3 -8 3 -17z
m-40 -268 c19 -23 17 -178 -4 -250 -24 -81 -60 -149 -93 -175 l-28 -22 -3 27
c-2 15 4 72 12 126 18 115 20 173 6 164 -19 -12 -10 55 16 120 l26 65 27 -20
c15 -10 34 -26 41 -35z"/>
<path d="M347 1373 c-20 -55 -21 -73 -7 -73 6 0 10 8 10 18 0 9 7 30 15 46 16
31 20 56 7 56 -4 0 -16 -21 -25 -47z"/>
<path d="M2317 1973 c-25 -38 -68 -115 -97 -173 -102 -206 -135 -243 -185
-206 -17 12 -18 17 -7 41 7 15 28 46 47 70 57 69 55 132 -5 148 -22 6 -29 1
-58 -40 -88 -127 -162 -368 -162 -533 0 -47 4 -62 25 -84 28 -30 52 -27 33 3
-9 15 -9 35 1 88 15 75 13 104 -6 111 -9 2 -13 -9 -14 -35 -2 -32 -3 -33 -6
-9 -3 15 -2 39 2 53 5 22 7 23 22 7 16 -15 18 -13 33 33 18 56 50 115 65 119
6 2 25 -9 44 -25 l35 -28 -22 -84 c-28 -106 -29 -178 -3 -210 23 -28 23 -29
46 91 19 99 47 169 80 200 l23 22 18 -29 c146 -235 209 -287 300 -248 l39 17
-52 19 c-65 25 -112 77 -173 190 -57 106 -57 105 -23 114 54 13 170 76 207
112 39 38 68 88 80 134 7 31 -6 39 -62 39 -55 -1 -111 -30 -192 -104 -41 -36
-78 -66 -83 -66 -4 0 17 35 47 78 69 94 126 189 126 206 0 19 -34 46 -58 46
-14 0 -34 -20 -65 -67z m203 -132 c0 -5 -18 -27 -41 -49 -42 -42 -179 -121
-179 -103 0 15 100 101 155 132 54 31 65 34 65 20z m-533 -176 c-8 -21 -19
-41 -25 -43 -18 -6 -15 14 10 61 25 49 34 38 15 -18z m-34 -71 c3 -3 2 -18 -3
-32 -5 -15 -11 -39 -14 -54 -4 -16 -13 -28 -22 -28 -13 0 -15 7 -10 30 3 17 9
44 12 60 6 28 22 38 37 24z"/>
<path d="M962 1755 c-57 -63 -108 -114 -113 -112 -6 1 -43 -51 -82 -115 -39
-64 -73 -115 -75 -114 -8 9 42 116 93 195 31 50 63 108 72 131 16 39 16 41 -7
65 -41 44 -60 34 -117 -62 -106 -180 -144 -298 -125 -389 10 -52 37 -104 52
-104 11 0 78 108 149 240 56 106 147 237 157 228 2 -3 -1 -20 -6 -39 -23 -81
-5 -175 39 -199 30 -16 33 -13 27 28 -9 49 5 92 53 166 22 33 44 81 50 106 9
40 8 47 -11 67 -12 13 -29 23 -37 23 -9 0 -62 -52 -119 -115z"/>
<path d="M1247 1778 c-131 -157 -212 -340 -193 -441 4 -20 18 -49 31 -64 32
-38 42 -31 142 101 87 116 154 190 185 207 17 9 16 5 -7 -40 -35 -70 -57 -159
-50 -203 6 -33 46 -88 66 -88 4 0 7 25 7 56 -1 51 7 71 71 198 39 78 71 146
71 153 0 7 -21 21 -46 33 -26 11 -76 42 -113 69 -62 45 -103 71 -115 71 -2 0
-24 -24 -49 -52z m160 -74 c21 -14 39 -27 42 -29 8 -9 -56 -83 -158 -185 -59
-58 -121 -123 -138 -145 l-31 -40 9 55 c5 30 30 98 56 150 35 73 61 110 110
158 35 34 65 62 68 62 2 0 21 -12 42 -26z"/>
<path d="M1665 1687 c-56 -112 -69 -150 -83 -229 -15 -91 -15 -95 4 -121 10
-14 26 -27 35 -27 31 0 84 71 176 239 61 113 62 115 23 71 -22 -25 -40 -40
-40 -35 0 6 6 17 13 25 6 8 2 6 -10 -4 -13 -10 -37 -41 -54 -67 -17 -27 -33
-49 -36 -49 -10 0 12 48 45 100 60 94 92 150 92 163 0 9 -54 48 -92 65 -3 2
-36 -57 -73 -131z"/>
<path d="M1324 1090 c-89 -37 -60 -180 36 -180 46 0 76 21 90 64 24 74 -54
147 -126 116z m87 -39 c34 -35 36 -59 8 -95 -26 -33 -79 -36 -109 -6 -30 30
-27 83 6 109 36 28 60 26 95 -8z"/>
<path d="M2040 1080 c-24 -24 -16 -46 33 -90 27 -24 29 -30 18 -44 -16 -19
-47 -21 -54 -3 -2 6 -8 9 -12 5 -13 -12 15 -38 41 -38 26 0 54 24 54 46 0 9
-18 34 -41 56 -37 36 -39 42 -25 56 12 13 18 13 31 2 8 -7 19 -10 23 -6 7 8
-25 36 -40 36 -4 0 -17 -9 -28 -20z"/>
<path d="M2265 1091 c-68 -28 -80 -126 -20 -165 53 -35 137 -7 147 49 5 23 3
25 -33 25 -22 0 -39 -4 -39 -10 0 -5 11 -10 25 -10 14 0 25 -4 25 -9 0 -19
-32 -41 -61 -41 -41 0 -68 16 -80 47 -25 67 60 131 117 88 23 -17 34 -19 34
-4 0 11 -61 39 -82 38 -7 0 -22 -4 -33 -8z"/>
<path d="M580 1006 c0 -47 5 -88 10 -91 6 -4 10 27 10 84 0 54 -4 91 -10 91
-6 0 -10 -35 -10 -84z"/>
<path d="M640 1003 c0 -56 4 -93 10 -93 6 0 10 29 10 68 l1 67 59 -65 59 -65
-1 90 c-2 85 -2 86 -5 20 l-4 -69 -64 69 -64 70 -1 -92z"/>
<path d="M810 1080 c0 -5 9 -10 20 -10 18 0 20 -7 20 -80 0 -47 4 -80 10 -80
6 0 10 33 10 80 0 73 2 80 20 80 11 0 20 5 20 10 0 6 -22 10 -50 10 -27 0 -50
-4 -50 -10z"/>
<path d="M932 1003 l3 -88 44 -3 c24 -2 49 2 54 7 8 8 -3 11 -36 11 l-47 0 0
35 c0 35 0 35 45 35 25 0 45 5 45 10 0 6 -20 10 -45 10 -41 0 -45 2 -45 25 0
22 4 25 39 25 22 0 43 5 46 10 4 6 -15 10 -50 10 l-56 0 3 -87z"/>
<path d="M1070 999 c0 -57 4 -88 10 -84 6 3 10 23 10 43 l1 37 39 -45 c45 -50
62 -51 25 0 -30 41 -31 43 -2 55 25 11 34 49 17 71 -8 8 -30 14 -56 14 l-44 0
0 -91z m87 55 c7 -19 -21 -44 -49 -44 -13 0 -18 8 -18 30 0 27 3 30 30 30 19
0 33 -6 37 -16z"/>
<path d="M1224 1000 c0 -52 1 -74 3 -47 2 26 2 68 0 95 -2 26 -3 4 -3 -48z"/>
<path d="M1490 1006 c0 -47 5 -88 10 -91 6 -4 10 12 10 42 l0 48 41 -48 c47
-54 66 -56 25 -3 -14 19 -26 37 -26 39 0 3 11 8 25 11 20 5 25 12 25 40 0 38
-12 46 -71 46 l-39 0 0 -84z m94 49 c7 -20 -22 -47 -48 -43 -15 2 -22 11 -24
31 -3 25 -1 27 31 27 21 0 37 -6 41 -15z"/>
<path d="M1710 999 l0 -91 57 4 c68 6 93 30 93 90 0 58 -34 88 -100 88 l-50 0
0 -91z m112 54 c11 -10 18 -30 18 -54 0 -45 -27 -69 -77 -69 l-33 0 0 70 0 70
37 0 c20 0 45 -7 55 -17z"/>
<path d="M1902 1003 l3 -88 48 -3 c28 -2 47 1 47 7 0 6 -18 11 -40 11 -39 0
-40 1 -40 35 0 34 1 35 40 35 22 0 40 5 40 10 0 6 -18 10 -40 10 -36 0 -40 3
-40 25 0 23 4 25 40 25 22 0 40 5 40 10 0 6 -23 10 -50 10 l-51 0 3 -87z"/>
<path d="M2150 1006 c0 -47 5 -88 10 -91 6 -4 10 27 10 84 0 54 -4 91 -10 91
-6 0 -10 -35 -10 -84z"/>
<path d="M2430 1003 c0 -106 18 -127 22 -27 l3 67 50 -61 c28 -34 53 -61 58
-61 4 -1 7 37 7 84 0 50 -4 85 -10 85 -6 0 -10 -27 -10 -60 0 -33 -4 -60 -10
-60 -5 0 -10 3 -10 8 -1 4 -23 32 -50 62 l-50 55 0 -92z"/>
</g>
</svg>
